<svg
   xmlns="http://www.w3.org/2000/svg"
   width="602"
   height="602"
   id="svg2"
>
  <g
     id="layer1"
     transform="translate(0,-450.36218)">
    <path
       fill="#ea4cc0"
       id="rect2996"
       d="m 138.68423,451.36222 324.63159,0 c 76.277,0 137.6842,61.4071 137.6842,137.68421 l 0,324.63159 c 0,76.27703 -61.4072,137.68418 -137.6842,137.68418 l -324.63159,0 c -76.277032,0 -137.6842055,-61.40715 -137.6842055,-137.68418 l 0,-324.63159 c 0,-76.27711 61.4071735,-137.68421 137.6842055,-137.68421 z"
       />

    <g
       id="g3044"
       style="fill:#ffffff"
       transform="matrix(6.6666667,0,0,6.6666667,-5.6668055,-5957.7192)">
      <path
         style="color:#ea4cc0;fill:#ffffff;fill-opacity:1;fill-rule:nonzero;stroke:none;stroke-width:6.19999981;marker:none;visibility:visible;display:inline;overflow:visible;enable-background:accumulate"
         d="m 62.03125,529.3125 -26.8125,7.25 -0.03125,0 0,10.90625 0.03125,0 0,19.5 c -1.173186,-0.70561 -2.611287,-1.125 -4.15625,-1.125 -3.979788,0 -7.1875,2.76364 -7.1875,6.15625 0,3.39261 3.207712,6.125 7.1875,6.125 3.979788,0 7.360598,-2.73536 7.21875,-6.125 l -0.0728,-1.7397 -0.177198,-23.5728 21.1875,-5.71875 0,21.53125 c -1.237229,-0.85265 -2.816364,-1.375 -4.53125,-1.375 -3.979788,0 -7.1875,2.76364 -7.1875,6.15625 0,3.39261 3.207712,6.125 7.1875,6.125 3.979788,0 7.325069,-2.73239 7.325069,-6.125 0,-0.0317 5.62e-4,-0.0621 0,-0.0937 l 0.01868,-26.96875 0,-9.65625 0,-1.25 z"
         transform="translate(0,450.36218)"
         id="path3036" />
    </g>
  </g>
</svg>
