<svg width="24" height="24" viewBox="0 0 24 24" xmlns="http://www.w3.org/2000/svg" fill="#b90845">
    <path d="M5.92486 9.02848V17H3.86289V9.02848H1V7.28471H8.77922V9.02848H5.92486Z" fill="black"></path>
    <path d="M13.4144 16.9911V9.35769C12.852 9.82922 11.9489 10.283 11.3354 10.5677L10.7048 9.0819C11.6762 8.65486 12.852 8.00539 13.7722 7.27585H15.3911V16.9911H13.4144Z" fill="black"></path>
    <path d="M16.959 16.9911V15.71C17.1976 14.5801 18.2626 13.548 19.4981 12.4181C20.1201 11.8577 20.7932 11.1548 20.7932 10.2117C20.7932 9.37545 20.2649 8.6726 19.251 8.6726C18.433 8.6726 17.8707 9.29536 17.6406 9.55337L16.6693 8.20106C17.5639 7.39146 18.3989 7 19.6514 7C21.2874 7 22.8296 7.98755 22.8296 9.97154C22.8296 11.6352 21.8156 12.4181 20.6909 13.4769C20.2138 13.9306 19.2851 14.7847 19.1658 15.3452H23V16.9733H16.959V16.9911Z" fill="black"></path>
    <path d="M22.7979 3.60509H1.20213C0.541815 3.60509 0 3.07195 0 2.4034V1.20171C0 0.541625 0.53335 0 1.20213 0H22.7979C23.4582 0 24 0.533162 24 1.20171V2.4034C24 3.07195 23.4582 3.60509 22.7979 3.60509Z"></path>
    <path d="M24 22.7983V21.5966C24 20.9365 23.4667 20.3949 22.7979 20.3949H1.20213C0.541815 20.3949 0 20.9281 0 21.5966V22.7983C0 23.4584 0.53335 24 1.20213 24H22.7979C23.4582 24 24 23.4584 24 22.7983Z"></path>
</svg>
