<svg class="svgmode svgmode-tram" viewBox="0 0 40 40" xmlns="http://www.w3.org/2000/svg">
    <path fill="none" class="svgmode__bg" d="M0 1h40v38H0z"></path>
    <path fill="#1D1D1B" class="svgmode__fg" d="M38.715 2.596H1.3C.579 2.596 0 2.018 0 1.298 0 .578.579 0 1.299 0H38.7C39.421 0 40 .578 40 1.298a1.283 1.283 0 01-1.285 1.298zM38.715 40H1.3C.579 40 0 39.422 0 38.702c0-.72.579-1.298 1.299-1.298H38.7c.72 0 1.299.578 1.299 1.298A1.283 1.283 0 0138.715 40zM35.44 33.284H3.995v-1.679h31.447c.31 0 .564.254.564.564v.565c0 .296-.254.55-.564.55zM3.994 29.997h26.21a5.847 5.847 0 005.293-3.302c.438-.889.593-1.89.452-2.907a15.812 15.812 0 00-4.009-8.522 3.924 3.924 0 00-2.879-1.27H15.229l2.908-2.384a.708.708 0 000-1.086l-5.11-4.177a.461.461 0 00-.635.057l-.282.352a.461.461 0 00.056.635l4.474 3.683-3.556 2.92h-9.09v1.806H9.81c.155 0 .283.128.283.283v7.746a.283.283 0 01-.283.282H3.994v5.884zM30.6 16.465a13.985 13.985 0 013.233 5.912c.254.945-.34 1.72-1.313 1.72h-8.341a.283.283 0 01-.283-.281v-7.732c0-.155.127-.283.282-.283h4.884c.593 0 1.143.24 1.538.664zM21.82 28.205H18.18a.283.283 0 01-.282-.283V16.085c0-.155.127-.283.282-.283h3.641c.156 0 .283.128.283.283v11.837a.283.283 0 01-.283.283zm-9.64-12.402h3.642c.155 0 .282.127.282.282v11.837a.283.283 0 01-.282.283H12.18a.283.283 0 01-.282-.283V16.085c0-.155.127-.283.282-.283z"></path>
</svg>
